<?xml version="1.0" encoding="UTF-8"?>
<svg xmlns="http://www.w3.org/2000/svg" viewBox="0 0 100 100">
	<g>
		<g>
			<path d="M98,0H2C.9,0,0,.93,0,2.07V80.61c0,1.14,.9,2.07,2,2.07H58.84c1.49,0,2.45,1.62,1.79,2.99l-5.48,11.33c-.9,1.85,1.1,3.76,2.82,2.7l26.98-16.72c.31-.19,.67-.29,1.03-.29h12.03c1.1,0,2-.93,2-2.07V2.07c0-1.14-.9-2.07-2-2.07ZM58.73,70.43c0,1.1-.9,2-2,2h-13.46c-1.1,0-2-.9-2-2V33.04c0-1.1,.9-2,2-2h13.46c1.1,0,2,.9,2,2v37.39Zm-8.73-44.97c-4.82,0-8.73-3.91-8.73-8.73s3.91-8.73,8.73-8.73,8.73,3.91,8.73,8.73-3.91,8.73-8.73,8.73Z"/>
		</g>
	</g>
</svg>