<?xml version="1.0" encoding="UTF-8"?>
<svg xmlns="http://www.w3.org/2000/svg" viewBox="0 0 100 100">
	<g>
		<path d="M100,53.98c-.18,1.58-.34,3.17-.54,4.75-.91,6.97-3.24,13.43-6.88,19.38-4.07,6.64-9.25,12.19-15.74,16.42-3.39,2.21-7.01,3.94-10.81,5.25-2.11,.73-3.57-.39-3.58-2.66-.02-4.44,0-8.87-.01-13.31,0-2.28-.13-4.56-1.12-6.65-.54-1.15-1.3-2.19-1.95-3.28,1.82-.35,3.78-.62,5.68-1.11,5.1-1.33,9.66-3.64,12.77-8.2,2.29-3.35,3.33-7.2,3.79-11.22,.36-3.12,.46-6.25-.18-9.36-.64-3.13-1.96-5.93-4-8.34-.54-.64-.59-1.15-.33-1.94,1.31-4.12,.75-8.16-.75-12.11-.09-.23-.46-.45-.72-.49-1.77-.28-3.45,.24-5,.99-2.49,1.2-4.9,2.59-7.37,3.84-.47,.24-1.12,.41-1.61,.28-7.76-1.98-15.52-2-23.26,.03-.67,.18-1.17,.05-1.72-.32-3.11-2.12-6.46-3.71-10.07-4.69-.09-.03-.19-.06-.28-.08-2.27-.44-2.63-.2-3.28,2.06-1.06,3.67-1.26,7.33,0,11.01,.1,.29,0,.8-.21,1.03-4.12,4.8-5.11,10.49-4.6,16.62,.31,3.72,1.15,7.29,2.77,10.65,2.24,4.64,6.03,7.5,10.64,9.15,2.77,.99,5.73,1.4,8.61,2.07,.15,.03,.3,.05,.31,.06-.73,1.36-1.48,2.71-2.17,4.08-.22,.43-.38,.95-.4,1.43-.05,1.15-.64,1.69-1.67,1.96-3.14,.83-6.25,1.39-9.24-.5-1.59-1.01-2.77-2.4-3.71-4.04-1.44-2.51-3.47-4.35-6.2-5.18-.98-.3-2.1-.24-3.15-.17-.79,.05-.96,.64-.46,1.27,.43,.54,.86,1.15,1.42,1.48,2.66,1.57,4.15,4.07,5.35,6.81,.71,1.61,1.35,3.24,2.68,4.47,2.1,1.93,4.64,2.66,7.35,2.78,2.35,.11,4.71,.02,7.23,.02,0,1.72,0,3.68,0,5.64,0,1.03,.04,2.07,.04,3.1-.01,2.4-1.55,3.55-3.77,2.78-7.39-2.58-13.89-6.65-19.34-12.39-5.29-5.56-9.32-11.95-11.81-19.33C1.3,63.86,.48,59.56,.15,55.15,.12,54.76,.05,54.37,0,53.98,0,51.98,0,49.98,0,47.97c.06-.35,.14-.7,.19-1.06,.33-2.3,.52-4.65,1.02-6.91,2.83-12.68,9.42-22.85,19.7-30.46C28.04,4.27,36,1.16,44.79,.28c7.43-.74,14.7-.03,21.73,2.54,10.27,3.75,18.56,10.21,24.74,19.44,4.09,6.1,6.83,12.78,7.98,20.1,.29,1.87,.51,3.74,.76,5.62v6.01Z"/>
	</g>
</svg>