<?xml version="1.0" encoding="UTF-8"?>
<svg xmlns="http://www.w3.org/2000/svg" viewBox="0 0 100 100">
	<g>
		<g>
			<path d="M57.4,6.53L51.44,.59c-.79-.79-2.08-.79-2.88,0l-5.96,5.94L.6,48.32c-.79,.79-.79,2.07,0,2.86l4.53,4.51c.79,.79,2.08,.79,2.88,0L48.56,15.33c.79-.79,2.08-.79,2.88,0l40.56,40.37c.79,.79,2.08,.79,2.88,0l4.53-4.51c.79-.79,.79-2.07,0-2.86L57.4,6.53Z"/>
			<path d="M48.56,20.39L14.24,54.54c-.38,.38-.6,.89-.6,1.43v42c0,1.12,.91,2.02,2.03,2.02h22.12c1.12,0,2.03-.91,2.03-2.02v-31.37c0-1.12,.91-2.02,2.03-2.02h16.27c1.12,0,2.03,.91,2.03,2.02v31.37c0,1.12,.91,2.02,2.03,2.02h22.12c1.12,0,2.03-.91,2.03-2.02V55.98c0-.54-.21-1.05-.6-1.43L51.44,20.39c-.79-.79-2.08-.79-2.88,0Z"/><path d="M37.46,1.94V7.59c0,.55-.22,1.07-.62,1.45l-14.07,13.41c-1.27,1.21-3.38,.31-3.38-1.45V1.94c0-1.07,.91-1.94,2.03-1.94h14c1.12,0,2.03,.87,2.03,1.94Z"/>
		</g>
	</g>
</svg>