<?xml version="1.0" encoding="UTF-8"?>
<svg xmlns="http://www.w3.org/2000/svg" viewBox="0 0 100 100"><defs>
	<g>
		<path class="e" d="M46.88,0c2.08,0,4.17,0,6.25,0,.25,.05,.5,.14,.75,.16,7.79,.58,15.07,2.82,21.71,6.91,12.91,7.95,20.86,19.38,23.64,34.32,.34,1.81,.52,3.66,.77,5.49v6.25c-.08,.64-.17,1.28-.24,1.92-1.07,9.89-4.65,18.76-10.97,26.45-7.85,9.57-17.89,15.51-30.09,17.72-1.85,.34-3.72,.52-5.58,.77h-6.25c-1.22-.15-2.44-.28-3.66-.45-9.22-1.31-17.51-4.83-24.71-10.75C8.95,80.94,2.99,70.91,.78,58.71c-.34-1.85-.52-3.72-.78-5.59,0-2.08,0-4.17,0-6.25,.08-.64,.17-1.28,.24-1.92,1.16-10.59,5.16-19.96,12.23-27.94C20.23,8.23,29.91,2.77,41.48,.75c1.79-.31,3.59-.51,5.39-.75Zm-4.62,75.54h12.12v-1.19c0-4.82,0-9.63,0-14.45,0-1.98,0-3.97,.08-5.95,.08-2.17,1.17-3.84,2.87-5.09,3.48-2.54,8.12-1.02,9.31,3.11,.39,1.35,.52,2.82,.53,4.23,.06,6.08,.02,12.17,.02,18.26v1.08h12.13c.02-.36,.04-.68,.04-1,0-6.54,.02-13.08-.01-19.62,0-1.43-.1-2.86-.27-4.28-.86-7.13-5.13-11.63-12-12.43-4.97-.58-9.19,.91-12.17,5.17-.11,.15-.23,.29-.52,.64v-5.02h-12.13v36.54ZM23.35,38.93v36.59h12.13v-1.21c0-10.94,0-21.87,0-32.81,0-.55-.04-1.11,.01-1.66,.08-.75-.23-.93-.95-.92-3.19,.03-6.38,.01-9.57,.01-.52,0-1.03,0-1.63,0Zm-.76-11.27c.02,3.71,2.88,6.33,6.84,6.29,3.99-.04,6.88-2.72,6.85-6.33-.04-3.75-2.9-6.37-6.92-6.33-3.99,.04-6.79,2.67-6.76,6.37Z"/>
	</g>
</svg>