<?xml version="1.0" encoding="UTF-8"?>
<svg xmlns="http://www.w3.org/2000/svg" viewBox="0 0 100 100">
	<g>
		<g>
			<path d="M0,2V20H100V2c0-1.1-.9-2-2-2H2C.9,0,0,.9,0,2ZM9.3,13.7c-2.04,0-3.7-1.66-3.7-3.7s1.66-3.7,3.7-3.7,3.7,1.66,3.7,3.7-1.66,3.7-3.7,3.7Zm12.32,0c-2.04,0-3.7-1.66-3.7-3.7s1.66-3.7,3.7-3.7,3.7,1.66,3.7,3.7-1.66,3.7-3.7,3.7Zm12.32,0c-2.04,0-3.7-1.66-3.7-3.7s1.66-3.7,3.7-3.7,3.7,1.66,3.7,3.7-1.66,3.7-3.7,3.7Z"/>
			<path d="M0,20V98c0,1.1,.9,2,2,2H98c1.1,0,2-.9,2-2V20H0Zm6.02,28.23L30.18,24.07c.98-.98,2.56-.98,3.54,0,.98,.98,.98,2.56,0,3.54L11.32,50l22.4,22.4c.98,.98,.98,2.56,0,3.54-.49,.49-1.13,.73-1.77,.73s-1.28-.24-1.77-.73L6.02,51.77c-.98-.98-.98-2.56,0-3.54Zm25.93,49.58c-.39,0-.78-.09-1.15-.28-1.23-.64-1.7-2.15-1.07-3.37L65.83,24.68c.64-1.23,2.15-1.7,3.37-1.07,1.23,.64,1.7,2.15,1.07,3.37L34.17,96.46c-.45,.86-1.32,1.35-2.22,1.35Zm62.03-26.57l-24.16,24.17c-.49,.49-1.13,.73-1.77,.73s-1.28-.24-1.77-.73c-.98-.98-.98-2.56,0-3.54l22.4-22.4-22.4-22.4c-.98-.98-.98-2.56,0-3.54,.98-.98,2.56-.98,3.54,0l24.16,24.16c.98,.98,.98,2.56,0,3.54Z"/>
		</g>
	</g>
</svg>