<?xml version="1.0" encoding="UTF-8"?>
<svg xmlns="http://www.w3.org/2000/svg" viewBox="0 0 100 100">
	<g>
		<g>
			<path d="M98,0H2C.9,0,0,.9,0,2V98c0,1.1,.9,2,2,2H98c1.1,0,2-.9,2-2V2c0-1.1-.9-2-2-2ZM30.7,41.55c.92-7.2,5.76-13.16,12.32-15.68-1.55-1.69-2.5-3.93-2.5-6.39,0-5.23,4.24-9.47,9.47-9.47s9.47,4.24,9.47,9.47c0,2.47-.95,4.71-2.5,6.39,6.56,2.52,11.41,8.49,12.32,15.68,.17,1.31-.83,2.48-2.15,2.48H32.85c-1.32,0-2.32-1.17-2.15-2.48Zm60.52,46.45c0,1.1-.9,2-2,2H13.22c-1.1,0-2-.9-2-2v-6c0-1.1,.9-2,2-2H89.22c1.1,0,2,.9,2,2v6Zm0-14.87c0,1.1-.9,2-2,2H13.22c-1.1,0-2-.9-2-2v-6c0-1.1,.9-2,2-2H89.22c1.1,0,2,.9,2,2v6Zm0-14.87c0,1.1-.9,2-2,2H13.22c-1.1,0-2-.9-2-2v-6c0-1.1,.9-2,2-2H89.22c1.1,0,2,.9,2,2v6Z"/>
		</g>
	</g>
</svg>