<?xml version="1.0" encoding="UTF-8"?>
<svg xmlns="http://www.w3.org/2000/svg" viewBox="0 0 100 100">
	<g>
		<g>
			<path d="M0,49.91c0-6.33,.01-12.66,0-18.99-.01-4.45,2.13-7.63,6.35-9.8C17.16,15.56,27.92,9.92,38.7,4.31c1.79-.93,3.6-1.83,5.38-2.78,4.75-2.53,9.25-1.72,13.63,.85,.89,.52,1.8,1.01,2.7,1.5,2.31,1.26,3.41,3.51,3.02,5.98-.39,2.48-1.48,4.69-2.82,6.82-1.43,2.28-2.82,4.58-4.29,6.84-3.5,5.4-8.56,8.86-15.38,9.55-3.46,.35-7.02-.06-10.53-.18-2.16-.07-4.31-.39-6.27,.88-3.09,2-3.74,6.08-1.35,8.95,1.97,2.36,6.88,2.9,9.26,.74,1.64-1.49,3.55-1.78,5.58-2.07,.4-.06,.83,0,1.2-.11,.96-.28,2-.3,2.29,.65,.14,.46-.52,1.37-1.08,1.75-4.22,2.81-8.4,5.72-13.39,7.3-3.38,1.07-5.19,3.65-5.17,6.61,.02,3.02,2.41,5.76,5.32,6.36,3.63,.74,7.03-.53,8.58-3.42,1.83-3.39,4.99-5.5,8.24-7.5,1.83-1.12,3.04-.42,2.97,1.59-.13,4.34-1.81,8.32-3.55,12.27-.2,.45-.78,.83-1.28,1.08-3.98,1.96-5.6,7.64-1.95,11.57,2.01,2.16,5.21,3.23,8.96,2.18,3.05-.85,5.42-3.53,5.53-6.47,.05-1.22-.02-2.59-.57-3.66-.72-1.37-.76-2.6-.37-3.98,.94-3.25,1.45-6.67,3.55-9.52,.96-1.31,2.26-2.45,3.56-3.5,.87-.7,1.93-.64,2.81,.28,1.77,1.84,2.85,3.88,2.52,6.42-.38,2.9,2.05,6.03,5.22,6.81,3.56,.88,7.32-.59,8.72-3.36,1.33-2.62,.67-6.23-1.52-8.23-2.74-2.5-5.27-5.23-7.58-8.07-3.29-4.07-3.97-8.61-1.34-13.18,2.29-3.99,4.84-7.87,7.42-11.72,1.75-2.62,4.17-4.64,7.44-5.55,.91-.25,2.16-.45,2.91-.08,3.33,1.66,6.7,3.33,9.72,5.41,2.22,1.54,3.17,4.05,3.17,6.66,.03,13.26,.06,26.52-.02,39.79-.02,3.75-2.02,6.69-5.54,8.54-10.53,5.54-21.12,11-31.69,16.47-2.84,1.47-5.63,3.03-8.57,4.3-2.93,1.27-6.06,1.12-8.9-.28-6.18-3.05-12.28-6.26-18.4-9.43-6.21-3.21-12.36-6.51-18.61-9.64-3.49-1.75-6.67-3.68-7.77-7.46-.31-1.06-.43-2.19-.44-3.29C-.02,62.66,0,56.29,0,49.91Z"/>
		</g>
	</g>
</svg>